<svg xmlns="http://www.w3.org/2000/svg" viewBox="0 0 32 32">
  <rect width="32" height="32" rx="6" fill="#111111"/>
  <path d="
    M 24.5 3.5
    C 21.4 3.5 18.9 6.0 18.9 9.1
    C 18.9 10.0 19.1 10.8 19.5 11.5
    L 7.8 23.2
    C 7.1 22.8 6.3 22.6 5.5 22.6
    C 4.1 22.6 3.5 23.5 3.5 24.8
    C 3.5 26.8 5.2 28.5 7.2 28.5
    C 8.5 28.5 9.4 27.9 9.4 26.5
    C 9.4 25.7 9.2 24.9 8.8 24.2
    L 20.5 12.5
    C 21.2 12.9 22.0 13.1 22.9 13.1
    C 26.0 13.1 28.5 10.6 28.5 7.5
    C 28.5 6.7 28.3 5.9 27.9 5.2
    L 25.2 7.9 L 23.1 7.9 L 23.1 5.8 L 25.8 3.1
    C 25.4 3.4 25.0 3.5 24.5 3.5 Z
  " fill="#FF6633"/>
  <circle cx="6.8" cy="25.6" r="1.5" fill="#111111"/>
</svg>
